HIERARCHY
ROOT pelvis
{
  OFFSET 0 100 0
  CHANNELS 6 Xposition Yposition Zposition Zrotation Xrotation Yrotation
  JOINT pelvis_right_femur
  {
    OFFSET -10.78128 -3.44521 -0.5502486
    CHANNELS 3 Zrotation Xrotation Yrotation
    JOINT right_femur_tibia
    {
      OFFSET -0.8047443 -44.0398 -0.1307829
      CHANNELS 3 Zrotation Xrotation Yrotation
      JOINT right_tibia_foot
      {
        OFFSET 3.006224 -47.83518 -5
        CHANNELS 3 Zrotation Xrotation Yrotation
        End Site
        {
          OFFSET 0 -5 15
        }
      }
    }
  }
  JOINT pelvis_left_femur
  {
    OFFSET 10.78128 -3.44521 -0.5502486
    CHANNELS 3 Zrotation Xrotation Yrotation
    JOINT left_femur_tibia
    {
      OFFSET 0.8047443 -44.0398 -0.1307829
      CHANNELS 3 Zrotation Xrotation Yrotation
      JOINT left_tibia_foot
      {
        OFFSET -4.370144 -48.10324 -4.275266
        CHANNELS 3 Zrotation Xrotation Yrotation
        End Site
        {
          OFFSET 0 -5 15
        }
      }
    }
  }
  JOINT pelvis_spine1
  {
    OFFSET 0 6.468898 -3.129235
    CHANNELS 3 Zrotation Xrotation Yrotation
    JOINT spine1
    {
      OFFSET 0 23.15396 4.99043
      CHANNELS 3 Zrotation Xrotation Yrotation
      JOINT spine2
      {
        OFFSET 0 20.79997 -5.064912
        CHANNELS 3 Zrotation Xrotation Yrotation
        JOINT neck
        {
          OFFSET 0 14.38658 9.616178
          CHANNELS 3 Zrotation Xrotation Yrotation
          End Site
          {
            OFFSET 0 20 0
          }
        }
      }
      JOINT right_manubrium
      {
        OFFSET -5.722621 16.35077 3.967754
        CHANNELS 3 Zrotation Xrotation Yrotation
        JOINT right_clavicle
        {
          OFFSET -13.16364 1.694482 -4.693211
          CHANNELS 3 Zrotation Xrotation Yrotation
          JOINT right_humerus
          {
            OFFSET -28.5034 -0.3100689 -2.792744
            CHANNELS 3 Zrotation Xrotation Yrotation
            JOINT right_radius
            {
              OFFSET -25.15693 0.02248979 -1.271978
              CHANNELS 3 Zrotation Xrotation Yrotation
              End Site
              {
                OFFSET -15 0 0
              }
            }
          }
        }
      }
      JOINT left_manubrium
      {
        OFFSET 5.722621 16.35077 3.967754
        CHANNELS 3 Zrotation Xrotation Yrotation
        JOINT left_clavicle
        {
          OFFSET 13.16364 1.694482 -4.693211
          CHANNELS 3 Zrotation Xrotation Yrotation
          JOINT left_humerus
          {
            OFFSET 29.39168 -1.063119 -2.237045
            CHANNELS 3 Zrotation Xrotation Yrotation
            JOINT left_radius
            {
              OFFSET 24.59957 -0.9528479 0.9047498
              CHANNELS 3 Zrotation Xrotation Yrotation
              End Site
              {
                OFFSET 15 -0 -0
              }
            }
          }
        }
      }
    }
  }
}
MOTION
Frames: 17
Frame Time: 0.0416666666667
0 103.5113 0 0.710605 -0.6062054 -0.06437238 3.629719 -17.35506 8.747804 -0 35.81211 -0 -5.554375 -15.96215 -3.991921 -6.672055 11.82376 -23.46385 -0 5.133013 -0 4.434697 -19.53365 25.01404 -2.996736 -3.487416 4.457422 3.162492 8.644675 -9.006502 0.9154748 20.51848 7.800877 3.342623 -27.10221 9.940369 4.987568 -20.22874 11.70295 83.61229 30.65024 -16.66808 -0 0 19.04429 -11.40168 9.033492 4.455596 9.204144 -21.56839 3.56234 -94.64118 20.09363 21.35822 0 0 -6.882907 13.11809 19.23228 -5.092315
0.255993 103.5005 1.593931 -0.09462417 -0.5305891 -0.150232 4.548122 -19.81113 8.505258 -0 36.64933 -0 -6.353532 -14.23729 -4.214584 -5.947896 11.81126 -22.63057 -0 5.68398 -0 2.883857 -20.52293 23.73021 -2.982024 -3.279535 4.331137 3.269215 8.643999 -8.987099 0.8892589 20.45577 7.948446 3.512037 -27.18748 9.971611 5.124545 -19.88006 11.7948 83.86376 31.12938 -17.02802 -0 0 18.37369 -11.16539 9.157985 4.530994 9.08345 -21.62682 3.27989 -94.28427 20.12136 20.74399 0 0 -8.119721 13.12224 18.65169 -4.929337
0.4582636 102.4494 5.376321 -0.02674871 -0.7050115 0.05511594 3.274552 -28.94865 1.662606 -0 19.13996 -0 -6.586208 -3.50154 -2.639364 -5.742784 14.45381 -14.93621 -0 6.763477 -0 3.993979 -21.94169 18.43334 -2.647985 -4.219377 5.570125 2.5019 9.775514 -7.923788 2.250694 20.82314 6.050569 2.590045 -26.46607 10.46115 6.497534 -20.57092 10.69703 84.85291 34.00018 -19.18802 -0 0 18.7974 -4.141208 7.966485 1.531544 7.502716 -20.57302 0.5522573 -95.89076 24.35794 23.77061 0 0 -12.76763 13.20079 19.04039 0.1462233
0.6791136 101.4608 9.175977 -0.1015204 0.3839359 0.2727201 3.90003 -30.64273 2.413724 -0 17.24297 -0 -6.213909 -3.78108 -2.530337 -5.875555 14.65023 -15.32253 -0 6.948503 -0 4.819197 -22.20908 18.84434 -1.902619 -2.363906 4.673938 3.136128 9.782301 -8.163138 1.33474 20.43923 7.045896 3.427853 -26.40887 9.560706 6.119907 -18.49486 11.49873 86.45136 35.55827 -20.37334 -0 0 13.93549 -7.322688 9.710286 4.266441 6.915149 -21.28836 -0.5211958 -92.7247 23.00589 20.287 0 0 -17.13165 12.08142 14.62589 0.3693861
0.9248367 100.5619 13.04086 -0.2426664 1.802149 0.5470203 4.978519 -32.48154 3.377153 -0 15.19403 -0 -6.071322 -3.752732 -1.96846 -6.100958 14.74466 -15.86674 -0 7.703239 -0 6.659203 -21.86406 19.61118 -1.576884 -1.561126 4.217002 3.369531 9.946716 -8.361962 0.9552453 20.22001 7.396275 3.740095 -26.01757 9.014943 5.858989 -17.46261 11.80546 87.53482 35.90709 -21.41069 -0 0 11.41798 -9.266744 10.6555 5.800648 6.588942 -21.70994 -1.370578 -90.70479 22.28054 18.07632 0 0 -19.98798 11.17144 12.18987 1.121512
1.149307 99.73811 17.5267 -0.5883046 2.648762 0.9540723 5.951491 -34.36646 3.250345 -0 12.42752 -0 -6.185792 -1.622514 -1.48084 -5.941092 15.36698 -14.73026 -0 10.68931 -0 6.94381 -20.84465 18.36756 -1.554401 -1.721935 4.361956 3.302369 9.988639 -8.23002 1.104419 20.34888 7.146676 3.551026 -26.09216 9.128669 5.914407 -17.71013 11.67753 87.52209 36.03759 -21.40842 -0 0 11.77064 -8.383242 10.31892 5.302128 6.42629 -21.45298 -1.468656 -91.2216 22.76043 18.88125 0 0 -19.59673 11.33642 12.6498 1.301729
1.357743 99.29155 22.66728 -1.383483 3.753643 1.527189 7.700656 -35.29482 3.969398 -0 12.16166 -0 -6.79712 -0.1253169 -0.9827252 -5.416877 15.47082 -13.99153 -0 15.54937 -0 6.078549 -18.80217 16.47046 -1.454184 -1.576227 4.319606 3.298834 10.0561 -8.25537 1.03189 20.33475 7.151381 3.599427 -25.89693 8.928771 5.877451 -17.48955 11.7185 87.69167 35.99394 -21.59411 -0 0 11.31682 -8.931868 10.56549 5.63117 6.353992 -21.55327 -1.63713 -90.94755 22.72873 18.61292 0 0 -19.89088 10.89539 12.27473 1.74159
1.550525 99.35801 28.47635 -2.466986 4.517124 2.161444 9.433384 -33.95424 4.720512 -0 13.84205 -0 -7.882234 0.3236084 -0.6957067 -4.476111 14.80679 -13.18799 -0 23.12447 -0 3.061389 -15.45924 13.43332 -1.379286 -1.323391 4.226637 3.286629 10.12469 -8.354146 0.8532606 20.24686 7.305422 3.788782 -25.53631 8.582441 5.80533 -17.10566 11.85018 87.78033 35.73893 -21.6701 -0 0 10.73447 -10.34702 11.10171 6.3926 6.406301 -21.84941 -1.714192 -90.37661 22.37405 17.85493 0 0 -20.2301 10.15111 11.61137 2.230773
1.738044 99.90942 34.74789 -3.242936 4.335192 2.553882 10.17972 -30.05242 5.071543 -0 15.67132 -0 -8.639155 -0.5697973 -0.9944665 -3.49818 13.09411 -12.17799 -0 32.7155 -0 -1.278358 -11.53371 10.45266 -1.349929 -1.156221 4.275455 3.161099 10.21309 -8.357256 0.7240202 20.23275 7.373536 3.938577 -25.11042 8.238539 5.746565 -16.90018 11.94763 87.6535 35.39586 -21.43526 -0 0 10.6097 -11.75509 11.52462 7.061072 6.457176 -22.05711 -1.701072 -90.1746 22.18506 17.58641 0 0 -19.95771 9.321552 11.24361 2.83884
1.891448 100.7472 41.27179 -3.044199 2.603465 2.445708 9.63622 -25.0157 4.889378 -0 15.68198 -0 -8.033546 -1.328059 -2.032327 -3.014144 11.06845 -10.62252 -0 42.15141 -0 -4.558783 -8.57543 9.265368 -1.368248 -1.06874 4.439758 2.95884 10.29702 -8.262765 0.6402651 20.28544 7.376789 4.035339 -24.7014 7.948002 5.68193 -16.88968 12.01246 87.3504 35.09001 -20.90925 -0 0 10.8677 -12.99273 11.77917 7.616445 6.482009 -22.14386 -1.618446 -90.26969 22.12861 17.77952 0 0 -19.25449 8.574881 11.10519 3.410597
1.959523 101.784 47.91921 -2.248578 0.1149576 1.990083 8.662139 -20.30049 4.692903 -0 14.71814 -0 -6.462008 -1.433861 -3.338405 -2.92507 9.144666 -8.98811 -0 49.16022 -0 -6.175676 -7.121945 9.847044 -1.410969 -1.041544 4.634568 2.756167 10.35568 -8.128824 0.5923735 20.36341 7.349139 4.079776 -24.38668 7.746776 5.614011 -16.99875 12.04578 87.00437 34.89614 -20.30356 -0 0 11.27291 -13.89543 11.88296 8.024819 6.481623 -22.14125 -1.516922 -90.48225 22.14036 18.19062 0 0 -18.495 8.045052 11.09275 3.826195
1.929674 103.0143 54.55283 -1.504651 -2.073988 1.378278 7.848692 -16.12991 4.63403 -0 13.92888 -0 -5.110016 -1.648508 -4.298488 -2.898171 6.851176 -7.79797 -0 53.77196 -0 -6.857093 -6.384258 11.04674 -1.460121 -1.027327 4.798672 2.587998 10.39721 -8.007072 0.5571782 20.42951 7.327552 4.102708 -24.14632 7.605447 5.53856 -17.12606 12.07 86.71663 34.76341 -19.76783 -0 0 11.63656 -14.5999 11.92782 8.364978 6.469383 -22.11297 -1.438734 -90.63923 22.1295 18.54917 0 0 -17.90897 7.675325 11.06127 4.109451
1.812209 104.3686 61.06674 -0.9401257 -3.802225 0.6591069 7.21395 -12.25288 4.606255 -0 13.35586 -0 -4.300223 -2.200345 -4.812884 -2.818296 4.008227 -7.014611 -0 56.84796 -0 -7.054084 -5.895448 12.34638 -1.513859 -0.9998476 4.942518 2.432943 10.44018 -7.891267 0.5220151 20.48541 7.314122 4.119694 -23.91759 7.478669 5.442795 -17.24985 12.09934 86.48132 34.63303 -19.27165 -0 0 11.95129 -15.29788 11.96267 8.728673 6.438658 -22.07315 -1.397979 -90.7123 22.07285 18.82512 0 0 -17.46319 7.346419 10.9436 4.360541
1.618715 105.7316 67.40295 -0.4823645 -5.245009 -0.138877 6.65082 -8.392094 4.552609 -0 12.79929 -0 -3.842314 -3.030493 -5.031551 -2.655354 0.6550203 -6.443137 -0 58.56591 -0 -6.977172 -5.609246 13.72339 -1.575435 -0.9710563 5.097275 2.267228 10.48594 -7.759548 0.4887645 20.54598 7.294559 4.126146 -23.68017 7.354476 5.326938 -17.40135 12.12836 86.24213 34.50208 -18.734 -0 0 12.29557 -16.01696 11.97759 9.120946 6.388208 -22.00851 -1.372544 -90.77246 22.00357 19.12945 0 0 -17.02965 7.022494 10.78954 4.617377
1.368366 106.9873 73.51612 -0.1101753 -6.416362 -0.9781135 6.126783 -4.383026 4.453718 -0 12.1855 -0 -3.680632 -4.210707 -4.98251 -2.36349 -3.296384 -5.998918 -0 58.71341 -0 -6.698443 -5.484541 15.15248 -1.64836 -0.9471372 5.279537 2.078264 10.5339 -7.598799 0.4577926 20.61803 7.262161 4.117823 -23.42372 7.228128 5.186766 -17.60217 12.15405 85.96787 34.37179 -18.10403 -0 0 12.71353 -16.77389 11.96442 9.552183 6.31478 -21.90818 -1.352833 -90.84833 21.9319 19.51949 0 0 -16.55402 6.691406 10.61494 4.894375
1.096279 108.0047 79.36467 0.165652 -7.194706 -1.814571 5.654077 -0.1669762 4.266785 -0 11.42988 -0 -3.870262 -5.873 -4.59577 -1.864364 -8.000293 -5.617982 -0 56.79717 -0 -6.185743 -5.446345 16.52479 -1.737213 -0.9268704 5.500571 1.855259 10.58564 -7.397286 0.4279616 20.70429 7.213294 4.090716 -23.1342 7.094083 5.010021 -17.87053 12.1767 85.64292 34.23441 -17.33943 -0 0 13.23531 -17.60648 11.91877 10.05143 6.209007 -21.75908 -1.342155 -90.93872 21.84954 20.02231 0 0 -16.02322 6.338907 10.39974 5.208537
0.8569297 108.6284 84.92765 0.309512 -7.350628 -2.597763 5.2842 4.123818 3.921233 -0 10.39496 -0 -4.451504 -8.130423 -3.773096 -1.020626 -13.47601 -5.163384 -0 51.97663 -0 -5.356124 -5.390424 17.60469 -1.846908 -0.9133503 5.774247 1.587276 10.63967 -7.140649 0.3995178 20.80728 7.141722 4.036802 -22.80221 6.950481 4.783264 -18.23454 12.19379 85.24493 34.08618 -16.38716 -0 0 13.90544 -18.53474 11.82959 10.6427 6.06002 -21.54171 -1.340935 -91.05045 21.75029 20.68375 0 0 -15.4198 5.96083 10.13171 5.571157
